<?xml version="1.0" encoding="utf-8"?>
<!-- Generator: Adobe Illustrator 22.0.1, SVG Export Plug-In . SVG Version: 6.00 Build 0)  -->
<svg version="1.1" id="Layer_1" xmlns="http://www.w3.org/2000/svg" xmlns:xlink="http://www.w3.org/1999/xlink" x="0px" y="0px"
	 viewBox="0 0 1200 800" style="enable-background:new 0 0 1200 800;" xml:space="preserve">
<style type="text/css">
	.st0{fill:none;stroke:#000000;stroke-width:4;stroke-miterlimit:10;}
	.st1{stroke:#000000;stroke-width:4;stroke-miterlimit:10;}
	.st2{fill:none;}
	.st3{font-family:'Roboto-Regular';}
	.st4{font-size:18px;}
	.st5{font-size:24px;}
	.st6{fill:none;stroke:#000000;stroke-width:4;stroke-miterlimit:10;stroke-dasharray:12;}
	.st7{font-size:14px;}
	.st8{font-size:16px;}
	.st9{fill:none;stroke:#999999;stroke-miterlimit:10;}
	.st10{font-family:'Roboto-Bold';}
	.st11{font-size:32px;}
</style>
<line class="st0" x1="430" y1="445.6" x2="1126.3" y2="445.6"/>
<line class="st0" x1="283.8" y1="445.6" x2="283.8" y2="457.6"/>
<line class="st0" x1="485.7" y1="445.6" x2="485.7" y2="457.6"/>
<line class="st0" x1="611.8" y1="445.6" x2="611.8" y2="457.6"/>
<line class="st0" x1="734.8" y1="445.6" x2="734.8" y2="457.6"/>
<line class="st0" x1="850.7" y1="445.6" x2="850.7" y2="457.6"/>
<line class="st0" x1="974.5" y1="445.6" x2="974.5" y2="457.6"/>
<line class="st0" x1="1094.3" y1="445.6" x2="1094.3" y2="457.6"/>
<polygon class="st1" points="1138.7,445.6 1128.3,451.6 1128.3,439.6 "/>
<rect x="262.5" y="461.9" class="st2" width="42.7" height="26.7"/>
<text transform="matrix(1 0 0 1 262.5002 475.5858)" class="st3 st4">2009</text>
<rect x="464.3" y="461.9" class="st2" width="42.7" height="26.7"/>
<text transform="matrix(1 0 0 1 464.3335 475.5858)" class="st3 st4">2012</text>
<rect x="590.5" y="461.9" class="st2" width="42.7" height="26.7"/>
<text transform="matrix(1 0 0 1 590.5001 475.5858)" class="st3 st4">2013</text>
<rect x="830.2" y="461.9" class="st2" width="42.7" height="26.7"/>
<text transform="matrix(1 0 0 1 830.1668 475.5858)" class="st3 st4">2015</text>
<rect x="713.5" y="461.9" class="st2" width="42.7" height="26.7"/>
<text transform="matrix(1 0 0 1 713.5002 475.5858)" class="st3 st4">2014</text>
<rect x="1069.8" y="461.9" class="st2" width="42.7" height="26.7"/>
<text transform="matrix(1 0 0 1 1069.8335 475.5858)" class="st3 st4">2017</text>
<rect x="953.2" y="461.9" class="st2" width="42.7" height="26.7"/>
<text transform="matrix(1 0 0 1 953.1669 475.5858)" class="st3 st4">2016</text>
<line class="st0" x1="211.3" y1="184.1" x2="211.3" y2="707.1"/>
<rect x="14" y="292.6" class="st2" width="176.3" height="64"/>
<text transform="matrix(1 0 0 1 17.1812 310.8215)" class="st3 st5">ANNOTATION</text>
<text transform="matrix(1 0 0 1 68.8812 339.6215)" class="st3 st5">TOOL</text>
<rect x="14" y="565.6" class="st2" width="176.3" height="64"/>
<text transform="matrix(1 0 0 1 30.0601 583.8215)" class="st3 st5">DATABASE / </text>
<text transform="matrix(1 0 0 1 39.3601 612.6215)" class="st3 st5">RESOURCE</text>
<line class="st6" x1="211.3" y1="445.6" x2="0" y2="445.6"/>
<rect y="772.5" class="st2" width="413" height="27.5"/>
<text transform="matrix(1 0 0 1 30.498 783.1396)" class="st3 st7">* designed for environmental / metagenomic samples</text>
<rect x="286" y="261.1" class="st2" width="103.8" height="87"/>
<text transform="matrix(1 0 0 1 286.0362 273.2419)" class="st3 st8">ARDB</text>
<text transform="matrix(1 0 0 1 286.0362 290.0419)" class="st3 st7">- blast, rpsblast </text>
<text transform="matrix(1 0 0 1 286.0362 306.8419)" class="st3 st7">&amp; SNP tools</text>
<text transform="matrix(1 0 0 1 286.0362 323.6419)" class="st3 st7">- ARDB db</text>
<rect x="413.5" y="324.6" class="st2" width="144.3" height="87"/>
<text transform="matrix(1 0 0 1 413.5 336.7375)" class="st3 st8">ResFinder</text>
<text transform="matrix(1 0 0 1 413.5 353.5375)" class="st3 st7">- blast tool</text>
<text transform="matrix(1 0 0 1 413.5 370.3375)" class="st3 st7">- can assemble reads</text>
<text transform="matrix(1 0 0 1 413.5 387.1375)" class="st3 st7">- ResFinder db</text>
<rect x="485.7" y="217.6" class="st2" width="123" height="87"/>
<text transform="matrix(1 0 0 1 485.6666 229.7419)" class="st3 st8">CARD RGI</text>
<text transform="matrix(1 0 0 1 485.6666 246.5419)" class="st3 st7">- blast &amp; protein </text>
<text transform="matrix(1 0 0 1 485.6666 263.3419)" class="st3 st7">variant tools</text>
<text transform="matrix(1 0 0 1 485.6666 280.1419)" class="st3 st7">- CARD db</text>
<line class="st9" x1="283.8" y1="435.2" x2="320.7" y2="335.3"/>
<line class="st9" x1="485.7" y1="397.1" x2="485.7" y2="436.6"/>
<line class="st0" x1="211.3" y1="445.6" x2="276.3" y2="445.6"/>
<line class="st6" x1="430" y1="445.6" x2="276.3" y2="445.6"/>
<rect x="574.2" y="304.6" class="st2" width="159.7" height="87"/>
<text transform="matrix(1 0 0 1 574.2324 316.7419)" class="st3 st8">SEAR *</text>
<text transform="matrix(1 0 0 1 574.2324 333.5419)" class="st3 st7">- clusters &amp; maps reads</text>
<text transform="matrix(1 0 0 1 574.2324 350.3419)" class="st3 st7">- customisable db</text>
<rect x="658" y="205.6" class="st2" width="261.8" height="87"/>
<text transform="matrix(1 0 0 1 658 217.7419)" class="st3 st8">kmerfinder / kmer resistance</text>
<text transform="matrix(1 0 0 1 658 234.5419)" class="st3 st7">- co-occurence of k-mers</text>
<text transform="matrix(1 0 0 1 658 251.3419)" class="st3 st7">- ResFinder db</text>
<line class="st9" x1="734.8" y1="261.1" x2="734.8" y2="436.6"/>
<line class="st9" x1="636.7" y1="356.6" x2="611.8" y2="436.6"/>
<line class="st9" x1="534.4" y1="284.9" x2="611.8" y2="436.6"/>
<rect x="786.8" y="275.9" class="st2" width="172" height="87"/>
<text transform="matrix(1 0 0 1 786.8333 288.0535)" class="st3 st8">mykrobe predictor</text>
<text transform="matrix(1 0 0 1 786.8333 304.8535)" class="st3 st7">- DeBruijn graph</text>
<text transform="matrix(1 0 0 1 786.8333 321.6535)" class="st3 st7">- S.</text>
<text transform="matrix(1 0 0 1 806.4333 321.6535)" class="st3 st7">auerus</text>
<text transform="matrix(1 0 0 1 848.9333 321.6535)" class="st3 st7"> &amp; TB db</text>
<rect x="926.3" y="166.6" class="st2" width="172" height="87"/>
<text transform="matrix(1 0 0 1 926.2878 178.7375)" class="st3 st8">ARGS-OAP *</text>
<text transform="matrix(1 0 0 1 926.2878 195.5375)" class="st3 st7">- Ublast/blastx tool</text>
<text transform="matrix(1 0 0 1 926.2878 212.3375)" class="st3 st7">- CARD + ARDB db</text>
<rect x="862.8" y="348.1" class="st2" width="172" height="87"/>
<text transform="matrix(1 0 0 1 862.8333 360.2419)" class="st3 st8">AMRPlusPlus *</text>
<text transform="matrix(1 0 0 1 862.8333 377.0419)" class="st3 st7">- maps reads</text>
<text transform="matrix(1 0 0 1 862.8333 393.8419)" class="st3 st7">- MEGARes db</text>
<line class="st9" x1="851.6" y1="329.9" x2="850.7" y2="436.6"/>
<line class="st9" x1="927" y1="397.1" x2="974.1" y2="437.7"/>
<line class="st9" x1="1002.9" y1="217.6" x2="974.1" y2="437.7"/>
<rect x="253.2" y="536.6" class="st2" width="103.8" height="87"/>
<text transform="matrix(1 0 0 1 253.2431 548.7332)" class="st3 st8">ARDB</text>
<text transform="matrix(1 0 0 1 253.2431 565.5332)" class="st3 st7">- ~24k ARGs</text>
<text transform="matrix(1 0 0 1 253.2431 582.3332)" class="st3 st7">- incl. type &amp; AB</text>
<text transform="matrix(1 0 0 1 253.2431 599.1332)" class="st3 st7">- offline?</text>
<rect x="413.5" y="635.6" class="st2" width="144.3" height="87"/>
<text transform="matrix(1 0 0 1 413.5 647.7375)" class="st3 st8">ResFinder</text>
<text transform="matrix(1 0 0 1 413.5 664.5375)" class="st3 st7">- ~2k ARGs</text>
<text transform="matrix(1 0 0 1 413.5 681.3375)" class="st3 st7">- only acquired ARGs</text>
<rect x="561" y="528.6" class="st2" width="144.3" height="87"/>
<text transform="matrix(1 0 0 1 561 540.7375)" class="st3 st8">CARD</text>
<text transform="matrix(1 0 0 1 561 557.5375)" class="st3 st7">- ~2k ARGs</text>
<text transform="matrix(1 0 0 1 561 574.3375)" class="st3 st7">- incl. ontology</text>
<rect x="661.7" y="635.6" class="st2" width="144.3" height="87"/>
<text transform="matrix(1 0 0 1 661.7324 647.7375)" class="st3 st8">ARG-annot</text>
<text transform="matrix(1 0 0 1 661.7324 664.5375)" class="st3 st7">- ~2k ARGs</text>
<text transform="matrix(1 0 0 1 661.7324 681.3375)" class="st3 st7">- db only</text>
<line class="st9" x1="733.9" y1="485.2" x2="733.9" y2="629.3"/>
<line class="st9" x1="485.7" y1="485.2" x2="485.7" y2="629.3"/>
<line class="st9" x1="611.8" y1="479.8" x2="611.8" y2="519.2"/>
<line class="st9" x1="283.8" y1="485.2" x2="283.8" y2="524.7"/>
<rect x="804.5" y="528.6" class="st2" width="144.3" height="87"/>
<text transform="matrix(1 0 0 1 804.5 540.7375)" class="st3 st8">Resfams *</text>
<text transform="matrix(1 0 0 1 804.5 557.5375)" class="st3 st7">- hidden markov </text>
<text transform="matrix(1 0 0 1 804.5 574.3375)" class="st3 st7">models &amp; protein </text>
<text transform="matrix(1 0 0 1 804.5 591.1375)" class="st3 st7">family db</text>
<text transform="matrix(1 0 0 1 804.5 607.9375)" class="st3 st7">- ~200 HMM profiles</text>
<line class="st9" x1="850.7" y1="479.8" x2="850.7" y2="519.2"/>
<rect x="902.3" y="636.8" class="st2" width="144.3" height="43.5"/>
<text transform="matrix(1 0 0 1 902.3328 648.979)" class="st3 st8">MEGARes *</text>
<text transform="matrix(1 0 0 1 902.3328 665.779)" class="st3 st7">- ~4k ARGs</text>
<line class="st9" x1="974.5" y1="486.7" x2="974.5" y2="630.8"/>
<rect y="52.6" class="st2" width="1200" height="64"/>
<text transform="matrix(1 0 0 1 289.148 76.9016)" class="st10 st11">Antibiotic Resistance Gene Resources</text>
<rect x="1059.8" y="566.4" class="st2" width="105.5" height="87"/>
<text transform="matrix(1 0 0 1 1059.7505 578.5123)" class="st3 st8">GEAR</text>
<text transform="matrix(1 0 0 1 1059.7505 595.3123)" class="st3 st7">- gene, ncRNA &amp; </text>
<text transform="matrix(1 0 0 1 1059.7505 612.1123)" class="st3 st7">SNP drug</text>
<text transform="matrix(1 0 0 1 1059.7505 628.9124)" class="st3 st7">associations</text>
<text transform="matrix(1 0 0 1 1059.7505 645.7123)" class="st3 st7">- ~2000 ARGs</text>
<line class="st9" x1="1092.8" y1="479.3" x2="1103.7" y2="557.3"/>
<rect x="949.3" y="685.5" class="st2" width="144.3" height="87"/>
<text transform="matrix(1 0 0 1 949.3333 697.6602)" class="st3 st8">FARME db *</text>
<text transform="matrix(1 0 0 1 949.3333 714.4602)" class="st3 st7">- hidden markov </text>
<text transform="matrix(1 0 0 1 949.3333 731.2603)" class="st3 st7">models &amp; DNA/pro</text>
<text transform="matrix(1 0 0 1 1072.4333 731.2603)" class="st3 st7">-</text>
<text transform="matrix(1 0 0 1 949.3333 748.0602)" class="st3 st7">tein seqs</text>
<text transform="matrix(1 0 0 1 949.3333 764.8602)" class="st3 st7">- ~11k ARGs</text>
<line class="st9" x1="1092.8" y1="479.3" x2="1000.1" y2="679.1"/>
<rect x="1070.6" y="240.6" class="st2" width="172" height="87"/>
<text transform="matrix(1 0 0 1 1070.5605 252.7874)" class="st3 st8">VRprofile</text>
<text transform="matrix(1 0 0 1 1070.5605 269.5874)" class="st3 st7">- HMM/blast</text>
<text transform="matrix(1 0 0 1 1070.5605 286.3874)" class="st3 st7">- uses mobilomeDB</text>
<rect x="996.2" y="314.2" class="st2" width="172" height="87"/>
<text transform="matrix(1 0 0 1 996.2393 326.402)" class="st3 st8">ARIBA</text>
<text transform="matrix(1 0 0 1 996.2393 343.202)" class="st3 st7">- maps &amp; assembles</text>
<text transform="matrix(1 0 0 1 996.2393 360.002)" class="st3 st7">reads</text>
<text transform="matrix(1 0 0 1 996.2393 376.802)" class="st3 st7">- customisable db</text>
<line class="st9" x1="1059.8" y1="385.2" x2="1095.8" y2="437.7"/>
<line class="st9" x1="1143.5" y1="304.6" x2="1095.8" y2="437.7"/>
</svg>
