<svg xmlns="http://www.w3.org/2000/svg" viewBox="0 0 446.23 730.54"><defs><style>.cls-1{fill:#e9dbc6;}.cls-2,.cls-4{fill:none;}.cls-2{stroke:#000;stroke-width:18px;}.cls-10,.cls-2,.cls-3,.cls-4,.cls-5,.cls-6,.cls-7,.cls-8,.cls-9{stroke-miterlimit:10;}.cls-3{fill:#c09061;}.cls-3,.cls-4{stroke:#98694d;stroke-width:8px;}.cls-10,.cls-5,.cls-6,.cls-7,.cls-8,.cls-9{stroke:#553d3a;stroke-width:5px;}.cls-6{fill:#0c0;}.cls-7{fill:#fc0;}.cls-8{fill:#255909;}.cls-9{fill:#930;}.cls-10{fill:#c00;}.cls-11,.cls-12{fill:#f26722;}.cls-12{font-size:120px;font-family:Bungee-Inline, Bungee;}.cls-13{letter-spacing:0em;}.cls-14{letter-spacing:-0.01em;}</style></defs><title>groot-with-text</title><g id="shape-bg"><polygon class="cls-1" points="445.86 127.53 224.97 0 4.08 127.53 4.08 382.6 224.97 510.13 445.86 382.6 445.86 127.53"/></g><g id="shadow"><path class="cls-2" d="M415.84,161.19c21.37,10.51,38.59,23.1,49.42,38.91,17,10,30.53,25.29,43.11,42.06,9.68-18.67,19.74-34.4,31.55-36.81,10.3,4.49,20.1,12.65,29.44,24.19,20.58,29.11,14.28,126.34,3.32,171.61-17.47,26.75-32.8,54.14-55.54,71.81,4.21,5.45-2.59,19.06-2.59,19.06-29.16,20.41-45.68,23.32-65.12,8.74a151.64,151.64,0,0,0-7-30.67c-26.1-19.82-47.92-33.19-65.52-78.62-10.17-54.9-9.23-113,0-173.5,16.44-15.4,29.95-33.78,38.9-56.78l-6.31-55.73" transform="translate(-251.77 -26.55)"/><path class="cls-2" d="M569.36,172.76a94.35,94.35,0,0,1,0,56.78" transform="translate(-251.77 -26.55)"/><path class="cls-2" d="M442.46,470.09c25,8.25,56.19,12.52,74.68,2.87" transform="translate(-251.77 -26.55)"/><path class="cls-2" d="M508.37,242.16s3.16-77.81,4.21-76.76" transform="translate(-251.77 -26.55)"/></g><g id="brown_fill" data-name="brown fill"><path class="cls-3" d="M415.84,161.19c21.37,10.51,38.59,23.1,49.42,38.91,17,10,30.53,25.29,43.11,42.06,9.68-18.67,19.74-34.4,31.55-36.81,10.3,4.49,20.1,12.65,29.44,24.19,20.58,29.11,14.28,126.34,3.32,171.61-17.47,26.75-32.8,54.14-55.54,71.81,4.21,5.45-2.59,19.06-2.59,19.06-29.16,20.41-45.68,23.32-65.12,8.74a151.64,151.64,0,0,0-7-30.67c-26.1-19.82-47.92-33.19-65.52-78.62-10.17-54.9-9.23-113,0-173.5,16.44-15.4,29.95-33.78,38.9-56.78l-6.31-55.73" transform="translate(-251.77 -26.55)"/><path class="cls-4" d="M569.36,172.76a94.35,94.35,0,0,1,0,56.78" transform="translate(-251.77 -26.55)"/><path class="cls-4" d="M442.46,470.09c25,8.25,56.19,12.52,74.68,2.87-8.77-17-23.05-15.29-25.85-35.43" transform="translate(-251.77 -26.55)"/><path class="cls-4" d="M572.83,400.9c-19.35-19.48-38.69-24.35-46.58-78.83-11.1-28.7-18.14-55.77-17.88-79.91,0,0,3.16-77.81,4.21-76.76" transform="translate(-251.77 -26.55)"/><path class="cls-4" d="M376.94,391.47c25.2-9.81,42.53-29.57,47.31-65.2q-19.86-68-47.31-108.3" transform="translate(-251.77 -26.55)"/><path class="cls-4" d="M424.25,326.27c14.5,25.38,98.36,36.89,102-4.2" transform="translate(-251.77 -26.55)"/><path class="cls-4" d="M491.29,437.53c-2.83-27.15,35.75-49.25,26.17-98.09" transform="translate(-251.77 -26.55)"/></g><g id="nodes"><circle class="cls-5" cx="175.4" cy="311.98" r="25.76"/><circle class="cls-5" cx="276.09" cy="311.98" r="25.76"/><circle class="cls-5" cx="123.3" cy="192.64" r="9.46"/><circle class="cls-5" cx="164.83" cy="135.34" r="12.09"/><circle class="cls-6" cx="214.57" cy="170.71" r="10.51"/><circle class="cls-7" cx="260.1" cy="138.96" r="11.57"/><circle class="cls-8" cx="318.03" cy="141.12" r="11.57"/><circle class="cls-7" cx="287.86" cy="177.45" r="9.99"/><circle class="cls-6" cx="255.79" cy="204.67" r="9.46"/><circle class="cls-8" cx="319.56" cy="196.63" r="9.99"/><circle class="cls-5" cx="321.19" cy="373.33" r="11.04"/><circle class="cls-9" cx="126.56" cy="363.04" r="9.99"/><circle class="cls-9" cx="189.6" cy="443.18" r="9.46"/><circle class="cls-5" cx="264.15" cy="443.09" r="10.51"/><circle class="cls-6" cx="157.1" cy="82.98" r="8.41"/><circle class="cls-10" cx="239.76" cy="397.91" r="12.45"/></g><g id="shape-fg"><path class="cls-11" d="M476.83,50.11,677.54,166V397.76L476.83,513.64,276.11,397.76V166L476.83,50.11m0-23.1L256.11,154.44V409.3L476.83,536.73,697.54,409.3V154.44L476.83,27Z" transform="translate(-251.77 -26.55)"/></g><g id="text"><text class="cls-12" transform="translate(9.46 620.86)">G<tspan class="cls-13" x="84.96" y="0">R</tspan><tspan x="173.52" y="0">O</tspan><tspan class="cls-13" x="261.96" y="0">O</tspan><tspan class="cls-14" x="349.8" y="0">T</tspan></text></g></svg>