<svg style="isolation:auto" viewBox="0 0 1000 1000" preserveAspectRatio="xMinYMin" xmlns="http://www.w3.org/2000/svg">
	<style>
	.blink {
		animation: blinking 10s infinite;
	}

	@keyframes blinking { 
		0% { fill: none;} 
		40% { fill: none;} 		
		50% { fill: #C09061;}
		51% { fill: none;} 
		100% { fill: none;} 
	}

	.growing {
		animation: grow 8s linear 0s infinite normal;
		-webkit-animation: grow 8s linear 0s infinite normal;
		-moz-animation: grow 8s linear 0s infinite normal;
		-ms-animation: grow 8s linear 0s infinite normal;
	}
	#leaf-1 {
		animation-duration: 4s;
		-webkit-animation-duration: 4s;
		-moz-animation-duration: 4s;
		-ms-animation-duration: 4s;
	}
	#leaf-3 {
		animation-duration: 12s;
		-webkit-animation-duration: 12s;
		-moz-animation-duration: 12s;
		-ms-animation-duration: 12s;
	}

	@keyframes grow { 
		25% { transform: translate(0%, -2%) ; fill: #F16721;} 
		50% { transform: translate(0%, -3%); } 
		75% { transform: translate(0%, -2%); fill: #9900FF} 
		100% { transform: translate(0%, -0%); } 
	} 

	@-webkit-keyframes grow { 
		25% { -webkit-transform: translate(0%, -2%); fill: #F16721;}
		50% { -webkit-transform: translate(0%, -3%); } 
		75% { -webkit-transform: translate(0%, -2%); fill: #9900FF} 
		100% { -webkit-transform: translate(0%, -0%); } 
	} 

	@-moz-keyframes grow { 
		25% { -moz-transform: translate(0%, -2%); fill: #F16721;}
		50% { -moz-transform: translate(0%, -3%); } 
		75% { -moz-transform: translate(0%, -2%); fill: #9900FF} 
		100% { -moz-transform: translate(0%, -0%); } 
	} 

	@-ms-keyframes grow { 
		25% { -ms-transform: translate(0%, -2%); fill: #F16721;}
		50% { -ms-transform: translate(0%, -3%); } 
		75% { -ms-transform: translate(0%, -2%); fill: #9900FF} 
		100% { -ms-transform: translate(0%, -0%); } 
	}
	</style>
	<polygon points="908.76 739.14 498.19 976.18 87.62 739.14 87.62 265.05 498.19 28 908.76 265.05" fill="#e9dbc5" stroke="#f16721" stroke-linecap="square" stroke-miterlimit="3" stroke-width="20" />
	<g fill="none" stroke="#000" stroke-miterlimit="10" stroke-width="26">
	<path class="cls-2" d="m382.62 263.06c41.967 20.64 75.784 45.365 97.052 76.413 33.385 19.638 59.956 49.665 84.661 82.599 19.01-36.665 38.766-67.556 61.958-72.289 20.228 8.818 39.474 24.842 57.816 47.505 40.415 57.167 28.043 248.11 6.52 337.01-34.308 52.532-64.414 106.32-109.07 141.02 8.268 10.703 0 37.431 0 37.431-57.265 40.082-83.524 52.77-148.55 19.241-3.107-4.262 8.495-42.762 1.837-62.308-51.256-38.923-94.107-65.179-128.67-154.4-19.973-107.81-18.127-221.91 0-340.72 32.285-30.243 58.816-66.339 76.393-111.51l-12.392-109.44" />
	<path class="cls-2" d="m680.4 265.09c11.45 36.287 15.153 95.915 3.704 132.2" />
	<path class="cls-2" d="m434.9 869.69c49.095 16.202 110.35 24.587 146.66 5.636" />
	<path class="cls-2" d="m564.33 422.08s5.304-187.82 5.793-198.75" />
	</g>
	<g stroke="#98694d" stroke-miterlimit="10" stroke-width="14">
	<path class="cls-3" d="m382.62 263.06c41.967 20.64 75.784 45.365 97.052 76.413 33.385 19.638 59.956 49.665 84.661 82.599 19.01-36.665 38.766-67.556 61.958-72.289 20.228 8.818 39.474 24.842 57.816 47.505 40.415 57.167 28.043 248.11 6.52 337.01-34.308 52.532-64.414 106.32-109.07 141.02 8.268 10.703-5.086 37.431-5.086 37.431-41.1 60.35-114.96 58.632-141.63 19.241-2.482-20.499 6.658-42.762 0-62.308-51.256-38.923-94.107-65.179-128.67-154.4-19.973-107.81-18.127-221.91 0-340.72 32.285-30.243 58.816-66.339 76.393-111.51l-12.392-109.44" fill="#c09061" />
	<path class="cls-4" d="m681.22 266.74c10.222 36.474 14.224 92.432 2.881 128.38" fill="none" />
	<path class="cls-4" d="m690.22 735.8c-37.647-37.9-75.275-47.376-90.626-153.37-21.595-55.839-35.293-108.51-34.787-155.47 0 0 5.262-189.56 5.321-201.89" fill="none" />
	<path class="cls-4" d="m309.1 717.46c49.028-19.087 72.324-41.515 81.624-110.84q-28.218-148.32-81.624-226.72" fill="none" />
	<path d="m482.07 338.34c0.055 9.453-76.235 180.3-55.15 272.61 52.154 21.409 107.13 34.842 172.67-4.328-0.531 0.692 10.675 34.422 9.214 34.564-202.16 71.864-175.16 217-172.23 229.23 2.927 12.233 109.32 24.359 145.3 5.584q-40.991-18.454-65.234-71.048c-4.967-47.655 103.45-81.353 111.02-157.26 0.821-8.233 50.692-155.52 0-298.66" fill="none" />
	</g>
	<g style="isolation:isolate">
	<path d="m467.66 796.01c-0.044 2.912 18.317 18.53 48.169 18.982 29.853 0.452 54.125-24.1 54.169-27.012 0.044-2.913-24.157 11.061-54.009 10.609-29.853-0.451-48.285-5.491-48.329-2.579z" stroke="#98694d" stroke-miterlimit="10" stroke-width="10" />
	</g>
	<g style="isolation:isolate">
	<g style="isolation:isolate">
	<circle class="cls-5" cx="612.07" cy="625.27" r="52.129" fill="none" stroke="#98694d" stroke-miterlimit="10" stroke-width="10" />
	<circle class="cls-5" cx="612.86" cy="625.6" r="46.964" stroke="#d96226" stroke-miterlimit="10" stroke-width="4" />
	<g fill="#fff" style="isolation:isolate">
	<path d="m627.88 592.84c-6.585-3.285-14.399-2.206-13.395-4.219 1.005-2.014 9.153-4.127 15.738-0.842 6.586 3.285 9.13 10.733 8.126 12.747-1.005 2.013-3.884-4.401-10.469-7.686z"/>
	<path d="m644.32 609.27c-1.565-2.22-1.627-4.873-0.139-5.922 1.487-1.048 3.965-0.097 5.529 2.122 1.565 2.22 1.627 4.873 0.14 5.922-1.488 1.048-3.966 0.097-5.53-2.122z"/>
	<path d="m606.22 662.83c7.245-1.296 3.543-1.556 3.939 0.659s8.485 1.622 1.241 2.918-13.732-3.159-14.129-5.374c-0.396-2.215 1.705 3.094 8.949 1.797z"/>
	</g>
	</g>
	<g style="isolation:isolate">
	<circle class="cls-5" cx="405.25" cy="625.27" r="52.129" fill="none" stroke="#98694d" stroke-miterlimit="10" stroke-width="10" />
	<circle class="cls-5" cx="406.17" cy="625.73" r="47.091" stroke="#d96226" stroke-miterlimit="10" stroke-width="4" />
	<g fill="#fff" style="isolation:isolate">
	<path d="m424.46 599.21c-5.699-4.656-13.559-5.325-12.135-7.068 1.424-1.742 9.837-2.008 15.536 2.648 5.7 4.657 6.54 12.482 5.116 14.225-1.423 1.742-2.818-5.149-8.517-9.805z"/>
	<path d="m433.48 644.6c1.738-2.086 4.137-2.957 5.353-1.943 1.216 1.013 0.792 3.53-0.947 5.616s-4.137 2.956-5.353 1.943c-1.216-1.014-0.792-3.53 0.947-5.616z"/>
	<path d="m416.5 658.88c5.845-4.471 2.435-3.007 3.802-1.219 1.367 1.787 8.286-2.446 2.44 2.025-5.845 4.472-13.653 3.485-15.02 1.697-1.368-1.787 2.933 1.969 8.778-2.503z"/>
	</g>
	</g>
	</g>
	<g stroke="#553d3a" stroke-miterlimit="10" stroke-width="10">
	<circle class="cls-5" cx="302.88" cy="375.98" r="19.144" fill="#930" />
	<circle class="cls-5" cx="386.92" cy="267.81" r="24.466" fill="#930" />
	<circle class="cls-6" cx="487.57" cy="339.39" r="21.268" fill="#0c0" />
	<circle class="cls-7" cx="631.38" cy="348.54" r="20.216" fill="#fc0" />
	<circle class="cls-6" cx="564.97" cy="401.1" r="19.144" fill="#930" />
	<circle class="cls-8" cx="686.93" cy="388.97" r="20.216" fill="#255909" />
	<circle class="cls-5" cx="692.13" cy="735" r="15.019" fill="#930" />
	<circle class="cls-9" cx="300.19" cy="718.54" r="16.459" fill="#930" />
	<circle class="cls-9" cx="433.1" cy="872.85" r="14.402" fill="#930" />
	<circle class="cls-5" cx="584.48" cy="887.25" r="18.645" fill="#930" />
	</g>
	<g stroke="#553d3a" stroke-miterlimit="10" stroke-width="10" style="isolation:isolate">
	<path id="leaf-1" d="m665.06 286.52c-1.936-12.776 7.129-25.84 15.513-27.11 7.104-1.076 20.569 8.575 22.505 21.352 1.935 12.776-2.556 24.067-15.332 26.002-12.777 1.936-20.751-7.467-22.686-20.244z" fill="#255909" />
	<path id="leaf-2" d="m546.34 256.49c0-12.922 10.491-39.403 23.413-39.403s23.413 26.481 23.413 39.403-10.491 23.414-23.413 23.414-23.413-10.492-23.413-23.414z" fill="#fc0" />
	<path id="leaf-3" d="m354.21 177.67c0-9.393 7.625-26.149 17.018-26.149s17.019 16.756 17.019 26.149-7.626 17.019-17.019 17.019-17.018-7.626-17.018-17.019z" fill="#0c0" />
	</g>
	<polygon points="908.76 739.14 498.19 976.18 87.62 739.14 87.62 265.05 498.19 28 908.76 265.05" fill="none" stroke="#f16721" stroke-linecap="square" stroke-miterlimit="3" stroke-width="40" />
	<circle class="cls-5 blink" cx="406.17" cy="625.73" r="47.091" stroke="none" fill="none" stroke-miterlimit="10" stroke-width="4" />
	<circle class="cls-5 blink" cx="612.86" cy="625.6" r="46.964" stroke="none" fill="none" stroke-miterlimit="10" stroke-width="4" />
	<g stroke="#747474" stroke-linecap="square" stroke-miterlimit="3" style="isolation:isolate">
	<path d="m850.06 528.52c-12.507 2.173-23.34 0.027-24.176-4.789-0.837-4.816 8.638-10.489 21.145-12.661 12.507-2.173 23.34-0.027 24.176 4.789 0.837 4.815-8.638 10.489-21.145 12.661z" fill="#a2a2a2" stroke-width="4"/>
	<path d="m802.88 526.03c10.723-6.794 21.552-8.958 24.168-4.83 2.616 4.129-3.965 12.997-14.688 19.791s-21.552 8.958-24.168 4.83c-2.616-4.129 3.965-12.997 14.688-19.791z" fill="#a2a2a2" stroke-width="4"/>
	<path d="m798.96 511.73c12.694-0.054 23.017 3.87 23.038 8.758 0.02 4.887-10.268 8.9-22.962 8.954s-23.017-3.87-23.038-8.758 10.268-8.9 22.962-8.954z" fill="#a2a2a2" stroke-width="4"/>
	<path d="m855.09 510.98c-9.928 7.911-20.461 11.23-23.507 7.407s2.542-13.348 12.469-21.259c9.928-7.911 20.461-11.23 23.507-7.407 3.046 3.822-2.541 13.348-12.469 21.259z" fill="#a2a2a2" stroke-width="4"/>
	<path d="m835.56 534.47c1.474-1.135 5.438 1.538 8.848 5.966 3.409 4.428 4.98 8.944 3.506 10.079-1.474 1.134-5.438-1.539-8.847-5.967-3.409-4.427-4.981-8.944-3.507-10.078z" fill="#a2a2a2" stroke-width="4"/>
	<path d="m828.44 536.61c1.858 0.093 3.14 4.699 2.862 10.281-0.279 5.581-2.013 10.037-3.871 9.944s-3.14-4.699-2.862-10.28c0.279-5.581 2.013-10.037 3.871-9.945z" fill="#a2a2a2" stroke-width="4"/>
	<path d="m831.31 512.66c0.92-1.616 5.61-0.683 10.466 2.082 4.856 2.766 8.051 6.323 7.13 7.94-0.921 1.616-5.61 0.683-10.466-2.082-4.856-2.766-8.051-6.324-7.13-7.94z" fill="#4a86e8" stroke-width="2"/>
	<path d="m808.35 534.83c-1.595-0.956-0.559-5.624 2.313-10.418 2.872-4.793 6.499-7.909 8.095-6.953 1.595 0.956 0.559 5.624-2.313 10.418-2.872 4.793-6.499 7.909-8.095 6.953z" fill="#4a86e8" stroke-width="2"/>
	<path d="m815.52 523.2c-1.355-4.491 2.586-9.658 8.795-11.531 6.208-1.873 12.349 0.253 13.704 4.745 1.355 4.491-2.586 9.658-8.795 11.531-6.208 1.873-12.349-0.253-13.704-4.745z" fill="#4a86e8" stroke-width="4"/>
	<path d="m823.43 535.16c-1.311-4.348 1.083-8.921 5.343-10.206s8.783 1.202 10.095 5.549c1.311 4.348-1.083 8.921-5.343 10.206s-8.784-1.201-10.095-5.549z" fill="#4a86e8" stroke-width="4"/>
	<path d="m813.43 505.03c-1.833-6.077 0.326-12.11 4.817-13.465s9.626 2.479 11.459 8.555c1.833 6.077-0.325 12.11-4.817 13.465-4.491 1.355-9.626-2.479-11.459-8.555z" fill="#a2a2a2" stroke-width="4"/>
	<path d="m813.14 504.08c-0.557-1.849 2.636-4.451 7.127-5.805 4.492-1.355 8.591-0.954 9.149 0.896 0.558 1.849-2.636 4.451-7.127 5.805-4.491 1.355-8.591 0.954-9.149-0.896z" fill="#f16721"/>
	<path d="m820.33 506.34c-0.518-1.717 0.223-3.462 1.654-3.893 1.431-0.432 3.013 0.612 3.531 2.329s-0.223 3.462-1.654 3.894c-1.431 0.431-3.013-0.612-3.531-2.33z" fill="#a2a2a2"/>
	</g>
</svg>



